<?xml version="1.0" encoding="utf-8"?>
<!-- Generator: Adobe Illustrator 17.1.0, SVG Export Plug-In . SVG Version: 6.00 Build 0)  -->
<!DOCTYPE svg PUBLIC "-//W3C//DTD SVG 1.1//EN" "http://www.w3.org/Graphics/SVG/1.1/DTD/svg11.dtd">
<svg version="1.1" id="svg-source" xmlns="http://www.w3.org/2000/svg" xmlns:xlink="http://www.w3.org/1999/xlink" x="0px" y="0px"
	 viewBox="0 0 141.1 337" enable-background="new 0 0 141.1 337" xml:space="preserve">
<g id="microphone">
	<g>
		<path d="M70.3,227.4c27.2,0,49.3-22.1,49.3-49.3V49.3C119.6,22.1,97.5,0,70.3,0C43.2,0,21,22.1,21,49.3v128.8
			C21,205.3,43.1,227.4,70.3,227.4z M33.8,49.3c0-20.1,16.4-36.5,36.5-36.5c20.1,0,36.5,16.4,36.5,36.5v128.8
			c0,20.2-16.4,36.6-36.5,36.6c-20.1,0-36.5-16.4-36.5-36.6C33.8,178.1,33.8,49.3,33.8,49.3z"/>
		<path d="M134.7,128.8c-3.6,0-6.4,2.9-6.4,6.4v42.7c0,31.9-25.9,57.8-57.7,57.8c-31.9,0-57.8-25.9-57.8-57.8v-42.7
			c0-3.5-2.9-6.4-6.4-6.4c-3.5,0-6.4,2.9-6.4,6.4v42.7c0,36.6,28.1,66.5,63.9,69.9v77h-36c-3.5,0-6.4,2.9-6.4,6.4
			c0,3.5,2.9,6.4,6.4,6.4h85.4c3.5,0,6.4-2.9,6.4-6.4c0-3.5-2.9-6.4-6.4-6.4H76.7v-77c36-3.1,64.5-33.1,64.5-69.9v-42.7
			C141.1,131.7,138.2,128.8,134.7,128.8z"/>
	</g>
</g>
</svg>
