<?xml version="1.0" encoding="utf-8"?>
<!-- Generator: Adobe Illustrator 17.1.0, SVG Export Plug-In . SVG Version: 6.00 Build 0)  -->
<!DOCTYPE svg PUBLIC "-//W3C//DTD SVG 1.1//EN" "http://www.w3.org/Graphics/SVG/1.1/DTD/svg11.dtd">
<svg version="1.1" id="svg-source" xmlns="http://www.w3.org/2000/svg" xmlns:xlink="http://www.w3.org/1999/xlink" x="0px" y="0px"
	 viewBox="10.4 0 10.4 32" enable-background="new 10.4 0 10.4 32" xml:space="preserve">
<g id="type-cursor">
	<g>
		<path d="M20.2,1.3c0.4,0,0.6-0.3,0.6-0.6c0-0.4-0.3-0.6-0.6-0.6c-1.8,0-3.4,1-4.2,2.5C15.2,1,13.6,0,11.8,0
			c-0.4,0-0.6,0.3-0.6,0.6c0,0.3,0.3,0.6,0.6,0.6c2,0,3.6,1.6,3.6,3.6v15.2h-3.6c-0.4,0-0.6,0.3-0.6,0.6s0.3,0.6,0.6,0.6h3.6v5.7
			c0,2-1.6,3.6-3.6,3.6c-0.4,0-0.6,0.3-0.6,0.6c0,0.3,0.3,0.6,0.6,0.6c1.8,0,3.4-1,4.2-2.5c0.8,1.5,2.4,2.5,4.2,2.5
			c0.4,0,0.6-0.3,0.6-0.6c0-0.3-0.3-0.6-0.6-0.6c-2,0-3.6-1.6-3.6-3.6v-5.7h3.6c0.4,0,0.6-0.3,0.6-0.6s-0.3-0.6-0.6-0.6h-3.6V4.9
			C16.6,2.9,18.3,1.3,20.2,1.3z"/>
	</g>
</g>
</svg>
