<?xml version="1.0" encoding="utf-8"?>
<!-- Generator: Adobe Illustrator 17.1.0, SVG Export Plug-In . SVG Version: 6.00 Build 0)  -->
<!DOCTYPE svg PUBLIC "-//W3C//DTD SVG 1.1//EN" "http://www.w3.org/Graphics/SVG/1.1/DTD/svg11.dtd">
<svg version="1.1" id="svg-source" xmlns="http://www.w3.org/2000/svg" xmlns:xlink="http://www.w3.org/1999/xlink" x="0px" y="0px"
	 viewBox="71.8 396 603.2 386.6" enable-background="new 71.8 396 603.2 386.6" xml:space="preserve">
<path fill="#18CAE6" d="M675,577.6l-15.9,18.2l-9.7,10.6c0,0,0,0.1-0.1,0.1l-17.6,20.2l-8.8,9.5l-9.7,9c0,0,0,0-0.1,0.1l-8.9,8.6
	l-8.8,8l-8.6,7l-9.6,6.2l-8.8,5.7l-8.6,4.7l-9.4,4.2l-8.5,2.8l-8.4,1.8l-8.4,0.9h-9.3l-8.4-0.9l-8.4-1.8l-8.5-2.8l-9.4-4.2l-8.6-4.7
	l-8.8-5.7l-9.6-6.1l-8.6-7l-8.8-8l-8.9-8.6c0,0,0-0.1-0.1-0.1l-9.7-9l-8.7-9.5L392,606.6c0,0,0-0.1-0.1-0.1l-9.7-10.6l-17.6-21.1
	c0-0.1-0.1-0.1-0.1-0.2l-9.8-10.6l-17.7-20.3l-8.9-9.6c-0.1-0.1-0.1-0.2-0.2-0.2l-9.8-9.1l-8.9-8.6c0,0,0-0.1-0.1-0.1l-8.9-8.2
	c-0.1-0.1-0.1-0.1-0.2-0.2l-8.9-7.2c-0.1-0.1-0.2-0.2-0.4-0.3l-9.8-6.2l-8.9-5.8c-0.1-0.1-0.2-0.1-0.3-0.2l-8.9-4.8
	c-0.1-0.1-0.2-0.1-0.3-0.2l-9.8-4.4c-0.1-0.1-0.3-0.1-0.4-0.2l-8.9-2.8c-0.1,0-0.3-0.1-0.4-0.1l-8.9-1.9c-0.2,0-0.3-0.1-0.5-0.1
	l-8.9-0.9c-0.2,0-0.3,0-0.5,0h-9.8c-0.2,0-0.3,0-0.5,0l-8.9,0.9c-0.2,0-0.3,0.1-0.5,0.1l-8.9,1.9c-0.1,0-0.3,0.1-0.4,0.1l-8.9,2.8
	c-0.1,0.1-0.3,0.1-0.4,0.2l-9.8,4.4c-0.1,0.1-0.2,0.1-0.3,0.2l-8.9,4.8c-0.1,0.1-0.2,0.1-0.3,0.2l-8.9,5.8l-9.8,6.3
	c-0.1,0.1-0.3,0.2-0.4,0.3l-8.9,7.2c-0.1,0.1-0.1,0.1-0.2,0.2l-8.9,8.2l-0.1,0.1l-8.9,8.6l-9.8,9.1c-0.1,0.1-0.1,0.2-0.2,0.2l-9,9.7
	l-17.7,20.2l-9.8,10.6c0,0.1-0.1,0.1-0.1,0.2l-2.7,3.3v11.1c0.1,0,0.1,0,0.3,0.1l8.8-10.6l9.7-10.6c0,0,0-0.1,0.1-0.1l17.6-20.2
	l8.8-9.5l9.7-9c0,0,0,0,0.1-0.1l8.9-8.6l8.8-8l8.6-7l9.6-6.2l8.8-5.7l8.6-4.7l9.4-4.2l8.5-2.8l8.4-1.8l8.4-0.9h9.3l8.4,0.9l8.4,1.8
	l8.5,2.8l9.4,4.2l8.6,4.7l8.8,5.7l9.6,6.1l8.6,7l8.8,8l8.9,8.6c0,0,0,0.1,0.1,0.1l9.7,9l8.7,9.5l17.7,20.2c0,0,0,0.1,0.1,0.1
	l9.7,10.6l17.6,21.1c0,0.1,0.1,0.1,0.1,0.2l9.8,10.6l17.7,20.3l8.9,9.6c0.1,0.1,0.1,0.2,0.2,0.2l9.8,9.1l8.9,8.6c0,0,0,0.1,0.1,0.1
	l8.9,8.2c0.1,0.1,0.1,0.1,0.2,0.2l8.9,7.2c0.1,0.1,0.2,0.2,0.4,0.3l9.8,6.2l8.9,5.8c0.1,0.1,0.2,0.1,0.3,0.2l8.9,4.8
	c0.1,0.1,0.2,0.1,0.3,0.2l9.8,4.4c0.1,0.1,0.3,0.1,0.4,0.2l8.9,2.9c0.1,0,0.3,0.1,0.4,0.1l8.9,1.9c0.2,0,0.3,0.1,0.5,0.1l8.9,0.9
	c0.2,0,0.3,0,0.5,0h9.8c0.2,0,0.3,0,0.5,0l8.9-1c0.2,0,0.3-0.1,0.5-0.1l8.9-1.9c0.1,0,0.3-0.1,0.4-0.1l8.9-2.8
	c0.1-0.1,0.3-0.1,0.4-0.2l9.8-4.4c0.1-0.1,0.2-0.1,0.3-0.2l8.9-4.8c0.1-0.1,0.2-0.1,0.3-0.2l8.9-5.8l9.8-6.3
	c0.1-0.1,0.2-0.2,0.4-0.3l8.9-7.2c0.1-0.1,0.1-0.1,0.2-0.2l8.9-8.2l0.1-0.1l8.9-8.6l9.8-9.1c0.1-0.1,0.1-0.2,0.2-0.2l9-9.7
	l17.7-20.2L675,589"/>
</svg>
