<?xml version="1.0" encoding="utf-8"?>
<!-- Generator: Adobe Illustrator 17.1.0, SVG Export Plug-In . SVG Version: 6.00 Build 0)  -->
<!DOCTYPE svg PUBLIC "-//W3C//DTD SVG 1.1//EN" "http://www.w3.org/Graphics/SVG/1.1/DTD/svg11.dtd">
<svg version="1.1" id="svg-source" xmlns="http://www.w3.org/2000/svg" xmlns:xlink="http://www.w3.org/1999/xlink" x="0px" y="0px"
	 viewBox="41 334.5 613 273.5" enable-background="new 41 334.5 613 273.5" xml:space="preserve">
<path fill="#18CAE6" d="M654,460.1l-16.2,21.4l-9.9,12.6c0,0,0,0.1-0.1,0.1l-17.9,24.1l-8.9,11.4l-9.9,10.8c0,0,0,0-0.1,0.1l-9,10.3
	l-8.9,9.6l-8.7,8.4l-9.8,7.4l-8.9,6.8l-8.7,5.6l-9.6,5l-8.6,3.3l-8.5,2.2l-8.5,1.1h-9.5l-8.5-1.1l-8.5-2.2l-8.6-3.3l-9.6-5l-8.7-5.6
	l-8.9-6.8l-9.8-7.3l-8.7-8.4l-8.9-9.6l-9-10.3c0,0,0-0.1-0.1-0.1l-9.9-10.8l-8.8-11.3l-18-24.1c0,0,0-0.1-0.1-0.1l-9.9-12.6
	l-17.9-25.2c0-0.1-0.1-0.1-0.1-0.2l-10-12.6l-18-24.2l-9-11.5c-0.1-0.1-0.1-0.2-0.2-0.2l-10-10.9l-9-10.3c0,0,0-0.1-0.1-0.1l-9-9.8
	c-0.1-0.1-0.1-0.1-0.2-0.2l-9-8.6c-0.1-0.1-0.2-0.2-0.4-0.3l-10-7.4l-9-6.9c-0.1-0.1-0.2-0.1-0.3-0.2l-9-5.7
	c-0.1-0.1-0.2-0.1-0.3-0.2l-10-5.2c-0.1-0.1-0.3-0.1-0.4-0.2l-9-3.4c-0.1,0-0.3-0.1-0.4-0.1l-9-2.3c-0.2,0-0.3-0.1-0.5-0.1l-9-1.1
	c-0.2,0-0.3,0-0.5,0h-10c-0.2,0-0.3,0-0.5,0l-9,1.1c-0.2,0-0.3,0.1-0.5,0.1l-9,2.3c-0.1,0-0.3,0.1-0.4,0.1l-9,3.4
	c-0.1,0.1-0.3,0.1-0.4,0.2l-10,5.2c-0.1,0.1-0.2,0.1-0.3,0.2l-9,5.7c-0.1,0.1-0.2,0.1-0.3,0.2l-9,6.9l-10,7.5
	c-0.1,0.1-0.3,0.2-0.4,0.3l-9,8.6c-0.1,0.1-0.1,0.1-0.2,0.2l-9,9.8c0,0-0.1,0.1-0.1,0.1l-9,10.3l-10,10.9c-0.1,0.1-0.1,0.2-0.2,0.2
	l-9.1,11.6l-18,24.1l-10,12.6c0,0.1-0.1,0.1-0.1,0.2l-2.7,3.9v13.3c0.1,0,0.1,0,0.3,0.1l8.9-12.6l9.9-12.6c0,0,0-0.1,0.1-0.1
	l17.9-24.1l8.9-11.4l9.9-10.8c0,0,0,0,0.1-0.1l9-10.3l8.9-9.6l8.7-8.4l9.8-7.4l8.9-6.8l8.7-5.6l9.6-5l8.6-3.3l8.5-2.2l8.5-1.1h9.5
	l8.5,1.1l8.5,2.2l8.6,3.3l9.6,5l8.7,5.6l8.9,6.8l9.8,7.3l8.7,8.4l8.9,9.6l9,10.3c0,0,0,0.1,0.1,0.1l9.9,10.8l8.8,11.3l18,24.1
	c0,0,0,0.1,0.1,0.1l9.9,12.6l17.9,25.2c0,0.1,0.1,0.1,0.1,0.2l10,12.6l18,24.2l9,11.5c0.1,0.1,0.1,0.2,0.2,0.2l10,10.9l9,10.3
	c0,0,0,0.1,0.1,0.1l9,9.8c0.1,0.1,0.1,0.1,0.2,0.2l9,8.6c0.1,0.1,0.2,0.2,0.4,0.3l10,7.4l9,6.9c0.1,0.1,0.2,0.1,0.3,0.2l9,5.7
	c0.1,0.1,0.2,0.1,0.3,0.2l10,5.2c0.1,0.1,0.3,0.1,0.4,0.2l9,3.5c0.1,0,0.3,0.1,0.4,0.1l9,2.3c0.2,0,0.3,0.1,0.5,0.1l9,1.1
	c0.2,0,0.3,0,0.5,0h10c0.2,0,0.3,0,0.5,0l9-1.2c0.2,0,0.3-0.1,0.5-0.1l9-2.3c0.1,0,0.3-0.1,0.4-0.1l9-3.4c0.1-0.1,0.3-0.1,0.4-0.2
	l10-5.2c0.1-0.1,0.2-0.1,0.3-0.2l9-5.7c0.1-0.1,0.2-0.1,0.3-0.2l9-6.9l10-7.5c0.1-0.1,0.2-0.2,0.4-0.3l9-8.6
	c0.1-0.1,0.1-0.1,0.2-0.2l9-9.8c0,0,0.1-0.1,0.1-0.1l9-10.3l10-10.9c0.1-0.1,0.1-0.2,0.2-0.2l9.1-11.6l18-24.1l19.8-25.1V460.1z"/>
</svg>
